<?xml version="1.0" encoding="utf-8"?>
<!DOCTYPE svg PUBLIC "-//W3C//DTD SVG 20010904//EN" "http://www.w3.org/TR/2001/REC-SVG-20010904/DTD/svg10.dtd">
<svg xmlns="http://www.w3.org/2000/svg" xml:space="preserve" xmlns:xlink="http://www.w3.org/1999/xlink" width="270" height="270" viewBox="0 0 270 270">
<desc></desc>
<rect width="270" height="270" fill="#ffffff" cx="0" cy="0" />
<defs>
<rect id="p" width="10" height="10" />
</defs>
<g fill="#000000">
<use x="10" y="10" xlink:href="#p" />
<use x="20" y="10" xlink:href="#p" />
<use x="30" y="10" xlink:href="#p" />
<use x="40" y="10" xlink:href="#p" />
<use x="50" y="10" xlink:href="#p" />
<use x="60" y="10" xlink:href="#p" />
<use x="70" y="10" xlink:href="#p" />
<use x="90" y="10" xlink:href="#p" />
<use x="160" y="10" xlink:href="#p" />
<use x="170" y="10" xlink:href="#p" />
<use x="190" y="10" xlink:href="#p" />
<use x="200" y="10" xlink:href="#p" />
<use x="210" y="10" xlink:href="#p" />
<use x="220" y="10" xlink:href="#p" />
<use x="230" y="10" xlink:href="#p" />
<use x="240" y="10" xlink:href="#p" />
<use x="250" y="10" xlink:href="#p" />
<use x="10" y="20" xlink:href="#p" />
<use x="70" y="20" xlink:href="#p" />
<use x="90" y="20" xlink:href="#p" />
<use x="120" y="20" xlink:href="#p" />
<use x="130" y="20" xlink:href="#p" />
<use x="140" y="20" xlink:href="#p" />
<use x="160" y="20" xlink:href="#p" />
<use x="190" y="20" xlink:href="#p" />
<use x="250" y="20" xlink:href="#p" />
<use x="10" y="30" xlink:href="#p" />
<use x="30" y="30" xlink:href="#p" />
<use x="40" y="30" xlink:href="#p" />
<use x="50" y="30" xlink:href="#p" />
<use x="70" y="30" xlink:href="#p" />
<use x="90" y="30" xlink:href="#p" />
<use x="100" y="30" xlink:href="#p" />
<use x="130" y="30" xlink:href="#p" />
<use x="140" y="30" xlink:href="#p" />
<use x="150" y="30" xlink:href="#p" />
<use x="160" y="30" xlink:href="#p" />
<use x="190" y="30" xlink:href="#p" />
<use x="210" y="30" xlink:href="#p" />
<use x="220" y="30" xlink:href="#p" />
<use x="230" y="30" xlink:href="#p" />
<use x="250" y="30" xlink:href="#p" />
<use x="10" y="40" xlink:href="#p" />
<use x="30" y="40" xlink:href="#p" />
<use x="40" y="40" xlink:href="#p" />
<use x="50" y="40" xlink:href="#p" />
<use x="70" y="40" xlink:href="#p" />
<use x="90" y="40" xlink:href="#p" />
<use x="100" y="40" xlink:href="#p" />
<use x="110" y="40" xlink:href="#p" />
<use x="130" y="40" xlink:href="#p" />
<use x="140" y="40" xlink:href="#p" />
<use x="160" y="40" xlink:href="#p" />
<use x="190" y="40" xlink:href="#p" />
<use x="210" y="40" xlink:href="#p" />
<use x="220" y="40" xlink:href="#p" />
<use x="230" y="40" xlink:href="#p" />
<use x="250" y="40" xlink:href="#p" />
<use x="10" y="50" xlink:href="#p" />
<use x="30" y="50" xlink:href="#p" />
<use x="40" y="50" xlink:href="#p" />
<use x="50" y="50" xlink:href="#p" />
<use x="70" y="50" xlink:href="#p" />
<use x="100" y="50" xlink:href="#p" />
<use x="110" y="50" xlink:href="#p" />
<use x="130" y="50" xlink:href="#p" />
<use x="140" y="50" xlink:href="#p" />
<use x="150" y="50" xlink:href="#p" />
<use x="160" y="50" xlink:href="#p" />
<use x="190" y="50" xlink:href="#p" />
<use x="210" y="50" xlink:href="#p" />
<use x="220" y="50" xlink:href="#p" />
<use x="230" y="50" xlink:href="#p" />
<use x="250" y="50" xlink:href="#p" />
<use x="10" y="60" xlink:href="#p" />
<use x="70" y="60" xlink:href="#p" />
<use x="90" y="60" xlink:href="#p" />
<use x="100" y="60" xlink:href="#p" />
<use x="110" y="60" xlink:href="#p" />
<use x="150" y="60" xlink:href="#p" />
<use x="160" y="60" xlink:href="#p" />
<use x="190" y="60" xlink:href="#p" />
<use x="250" y="60" xlink:href="#p" />
<use x="10" y="70" xlink:href="#p" />
<use x="20" y="70" xlink:href="#p" />
<use x="30" y="70" xlink:href="#p" />
<use x="40" y="70" xlink:href="#p" />
<use x="50" y="70" xlink:href="#p" />
<use x="60" y="70" xlink:href="#p" />
<use x="70" y="70" xlink:href="#p" />
<use x="90" y="70" xlink:href="#p" />
<use x="110" y="70" xlink:href="#p" />
<use x="130" y="70" xlink:href="#p" />
<use x="150" y="70" xlink:href="#p" />
<use x="170" y="70" xlink:href="#p" />
<use x="190" y="70" xlink:href="#p" />
<use x="200" y="70" xlink:href="#p" />
<use x="210" y="70" xlink:href="#p" />
<use x="220" y="70" xlink:href="#p" />
<use x="230" y="70" xlink:href="#p" />
<use x="240" y="70" xlink:href="#p" />
<use x="250" y="70" xlink:href="#p" />
<use x="110" y="80" xlink:href="#p" />
<use x="120" y="80" xlink:href="#p" />
<use x="140" y="80" xlink:href="#p" />
<use x="150" y="80" xlink:href="#p" />
<use x="170" y="80" xlink:href="#p" />
<use x="10" y="90" xlink:href="#p" />
<use x="20" y="90" xlink:href="#p" />
<use x="50" y="90" xlink:href="#p" />
<use x="60" y="90" xlink:href="#p" />
<use x="70" y="90" xlink:href="#p" />
<use x="110" y="90" xlink:href="#p" />
<use x="130" y="90" xlink:href="#p" />
<use x="150" y="90" xlink:href="#p" />
<use x="160" y="90" xlink:href="#p" />
<use x="170" y="90" xlink:href="#p" />
<use x="200" y="90" xlink:href="#p" />
<use x="220" y="90" xlink:href="#p" />
<use x="230" y="90" xlink:href="#p" />
<use x="240" y="90" xlink:href="#p" />
<use x="250" y="90" xlink:href="#p" />
<use x="20" y="100" xlink:href="#p" />
<use x="40" y="100" xlink:href="#p" />
<use x="50" y="100" xlink:href="#p" />
<use x="60" y="100" xlink:href="#p" />
<use x="80" y="100" xlink:href="#p" />
<use x="90" y="100" xlink:href="#p" />
<use x="140" y="100" xlink:href="#p" />
<use x="150" y="100" xlink:href="#p" />
<use x="170" y="100" xlink:href="#p" />
<use x="200" y="100" xlink:href="#p" />
<use x="220" y="100" xlink:href="#p" />
<use x="230" y="100" xlink:href="#p" />
<use x="240" y="100" xlink:href="#p" />
<use x="30" y="110" xlink:href="#p" />
<use x="40" y="110" xlink:href="#p" />
<use x="50" y="110" xlink:href="#p" />
<use x="60" y="110" xlink:href="#p" />
<use x="70" y="110" xlink:href="#p" />
<use x="100" y="110" xlink:href="#p" />
<use x="110" y="110" xlink:href="#p" />
<use x="170" y="110" xlink:href="#p" />
<use x="190" y="110" xlink:href="#p" />
<use x="200" y="110" xlink:href="#p" />
<use x="210" y="110" xlink:href="#p" />
<use x="230" y="110" xlink:href="#p" />
<use x="240" y="110" xlink:href="#p" />
<use x="250" y="110" xlink:href="#p" />
<use x="20" y="120" xlink:href="#p" />
<use x="30" y="120" xlink:href="#p" />
<use x="60" y="120" xlink:href="#p" />
<use x="80" y="120" xlink:href="#p" />
<use x="100" y="120" xlink:href="#p" />
<use x="130" y="120" xlink:href="#p" />
<use x="150" y="120" xlink:href="#p" />
<use x="180" y="120" xlink:href="#p" />
<use x="220" y="120" xlink:href="#p" />
<use x="240" y="120" xlink:href="#p" />
<use x="10" y="130" xlink:href="#p" />
<use x="20" y="130" xlink:href="#p" />
<use x="30" y="130" xlink:href="#p" />
<use x="50" y="130" xlink:href="#p" />
<use x="60" y="130" xlink:href="#p" />
<use x="70" y="130" xlink:href="#p" />
<use x="80" y="130" xlink:href="#p" />
<use x="120" y="130" xlink:href="#p" />
<use x="140" y="130" xlink:href="#p" />
<use x="150" y="130" xlink:href="#p" />
<use x="200" y="130" xlink:href="#p" />
<use x="230" y="130" xlink:href="#p" />
<use x="240" y="130" xlink:href="#p" />
<use x="250" y="130" xlink:href="#p" />
<use x="10" y="140" xlink:href="#p" />
<use x="20" y="140" xlink:href="#p" />
<use x="40" y="140" xlink:href="#p" />
<use x="50" y="140" xlink:href="#p" />
<use x="60" y="140" xlink:href="#p" />
<use x="90" y="140" xlink:href="#p" />
<use x="100" y="140" xlink:href="#p" />
<use x="110" y="140" xlink:href="#p" />
<use x="130" y="140" xlink:href="#p" />
<use x="150" y="140" xlink:href="#p" />
<use x="170" y="140" xlink:href="#p" />
<use x="180" y="140" xlink:href="#p" />
<use x="200" y="140" xlink:href="#p" />
<use x="230" y="140" xlink:href="#p" />
<use x="240" y="140" xlink:href="#p" />
<use x="30" y="150" xlink:href="#p" />
<use x="40" y="150" xlink:href="#p" />
<use x="70" y="150" xlink:href="#p" />
<use x="80" y="150" xlink:href="#p" />
<use x="90" y="150" xlink:href="#p" />
<use x="120" y="150" xlink:href="#p" />
<use x="130" y="150" xlink:href="#p" />
<use x="140" y="150" xlink:href="#p" />
<use x="150" y="150" xlink:href="#p" />
<use x="190" y="150" xlink:href="#p" />
<use x="200" y="150" xlink:href="#p" />
<use x="210" y="150" xlink:href="#p" />
<use x="240" y="150" xlink:href="#p" />
<use x="250" y="150" xlink:href="#p" />
<use x="30" y="160" xlink:href="#p" />
<use x="50" y="160" xlink:href="#p" />
<use x="60" y="160" xlink:href="#p" />
<use x="80" y="160" xlink:href="#p" />
<use x="110" y="160" xlink:href="#p" />
<use x="120" y="160" xlink:href="#p" />
<use x="140" y="160" xlink:href="#p" />
<use x="170" y="160" xlink:href="#p" />
<use x="180" y="160" xlink:href="#p" />
<use x="190" y="160" xlink:href="#p" />
<use x="200" y="160" xlink:href="#p" />
<use x="210" y="160" xlink:href="#p" />
<use x="240" y="160" xlink:href="#p" />
<use x="10" y="170" xlink:href="#p" />
<use x="20" y="170" xlink:href="#p" />
<use x="30" y="170" xlink:href="#p" />
<use x="40" y="170" xlink:href="#p" />
<use x="50" y="170" xlink:href="#p" />
<use x="60" y="170" xlink:href="#p" />
<use x="70" y="170" xlink:href="#p" />
<use x="80" y="170" xlink:href="#p" />
<use x="90" y="170" xlink:href="#p" />
<use x="100" y="170" xlink:href="#p" />
<use x="110" y="170" xlink:href="#p" />
<use x="130" y="170" xlink:href="#p" />
<use x="140" y="170" xlink:href="#p" />
<use x="160" y="170" xlink:href="#p" />
<use x="170" y="170" xlink:href="#p" />
<use x="180" y="170" xlink:href="#p" />
<use x="190" y="170" xlink:href="#p" />
<use x="200" y="170" xlink:href="#p" />
<use x="210" y="170" xlink:href="#p" />
<use x="240" y="170" xlink:href="#p" />
<use x="90" y="180" xlink:href="#p" />
<use x="100" y="180" xlink:href="#p" />
<use x="140" y="180" xlink:href="#p" />
<use x="150" y="180" xlink:href="#p" />
<use x="170" y="180" xlink:href="#p" />
<use x="210" y="180" xlink:href="#p" />
<use x="230" y="180" xlink:href="#p" />
<use x="240" y="180" xlink:href="#p" />
<use x="10" y="190" xlink:href="#p" />
<use x="20" y="190" xlink:href="#p" />
<use x="30" y="190" xlink:href="#p" />
<use x="40" y="190" xlink:href="#p" />
<use x="50" y="190" xlink:href="#p" />
<use x="60" y="190" xlink:href="#p" />
<use x="70" y="190" xlink:href="#p" />
<use x="110" y="190" xlink:href="#p" />
<use x="170" y="190" xlink:href="#p" />
<use x="190" y="190" xlink:href="#p" />
<use x="210" y="190" xlink:href="#p" />
<use x="230" y="190" xlink:href="#p" />
<use x="240" y="190" xlink:href="#p" />
<use x="250" y="190" xlink:href="#p" />
<use x="10" y="200" xlink:href="#p" />
<use x="70" y="200" xlink:href="#p" />
<use x="90" y="200" xlink:href="#p" />
<use x="130" y="200" xlink:href="#p" />
<use x="150" y="200" xlink:href="#p" />
<use x="170" y="200" xlink:href="#p" />
<use x="210" y="200" xlink:href="#p" />
<use x="240" y="200" xlink:href="#p" />
<use x="10" y="210" xlink:href="#p" />
<use x="30" y="210" xlink:href="#p" />
<use x="40" y="210" xlink:href="#p" />
<use x="50" y="210" xlink:href="#p" />
<use x="70" y="210" xlink:href="#p" />
<use x="90" y="210" xlink:href="#p" />
<use x="100" y="210" xlink:href="#p" />
<use x="110" y="210" xlink:href="#p" />
<use x="120" y="210" xlink:href="#p" />
<use x="140" y="210" xlink:href="#p" />
<use x="150" y="210" xlink:href="#p" />
<use x="160" y="210" xlink:href="#p" />
<use x="170" y="210" xlink:href="#p" />
<use x="180" y="210" xlink:href="#p" />
<use x="190" y="210" xlink:href="#p" />
<use x="200" y="210" xlink:href="#p" />
<use x="210" y="210" xlink:href="#p" />
<use x="240" y="210" xlink:href="#p" />
<use x="250" y="210" xlink:href="#p" />
<use x="10" y="220" xlink:href="#p" />
<use x="30" y="220" xlink:href="#p" />
<use x="40" y="220" xlink:href="#p" />
<use x="50" y="220" xlink:href="#p" />
<use x="70" y="220" xlink:href="#p" />
<use x="100" y="220" xlink:href="#p" />
<use x="130" y="220" xlink:href="#p" />
<use x="160" y="220" xlink:href="#p" />
<use x="170" y="220" xlink:href="#p" />
<use x="210" y="220" xlink:href="#p" />
<use x="220" y="220" xlink:href="#p" />
<use x="230" y="220" xlink:href="#p" />
<use x="240" y="220" xlink:href="#p" />
<use x="250" y="220" xlink:href="#p" />
<use x="10" y="230" xlink:href="#p" />
<use x="30" y="230" xlink:href="#p" />
<use x="40" y="230" xlink:href="#p" />
<use x="50" y="230" xlink:href="#p" />
<use x="70" y="230" xlink:href="#p" />
<use x="100" y="230" xlink:href="#p" />
<use x="120" y="230" xlink:href="#p" />
<use x="130" y="230" xlink:href="#p" />
<use x="140" y="230" xlink:href="#p" />
<use x="150" y="230" xlink:href="#p" />
<use x="170" y="230" xlink:href="#p" />
<use x="190" y="230" xlink:href="#p" />
<use x="200" y="230" xlink:href="#p" />
<use x="210" y="230" xlink:href="#p" />
<use x="240" y="230" xlink:href="#p" />
<use x="10" y="240" xlink:href="#p" />
<use x="70" y="240" xlink:href="#p" />
<use x="90" y="240" xlink:href="#p" />
<use x="100" y="240" xlink:href="#p" />
<use x="120" y="240" xlink:href="#p" />
<use x="140" y="240" xlink:href="#p" />
<use x="160" y="240" xlink:href="#p" />
<use x="170" y="240" xlink:href="#p" />
<use x="200" y="240" xlink:href="#p" />
<use x="210" y="240" xlink:href="#p" />
<use x="240" y="240" xlink:href="#p" />
<use x="10" y="250" xlink:href="#p" />
<use x="20" y="250" xlink:href="#p" />
<use x="30" y="250" xlink:href="#p" />
<use x="40" y="250" xlink:href="#p" />
<use x="50" y="250" xlink:href="#p" />
<use x="60" y="250" xlink:href="#p" />
<use x="70" y="250" xlink:href="#p" />
<use x="90" y="250" xlink:href="#p" />
<use x="110" y="250" xlink:href="#p" />
<use x="130" y="250" xlink:href="#p" />
<use x="140" y="250" xlink:href="#p" />
<use x="160" y="250" xlink:href="#p" />
<use x="170" y="250" xlink:href="#p" />
<use x="190" y="250" xlink:href="#p" />
<use x="240" y="250" xlink:href="#p" />
<use x="250" y="250" xlink:href="#p" />
</g>
</svg>